<svg xmlns="http://www.w3.org/2000/svg" id="Layer_2" data-name="Layer 2" viewBox="0 0 190.52 190.52"><defs><style>.cls-1{fill:#231f20;stroke-width:0}</style></defs><g id="Layer_1-2" data-name="Layer 1"><g id="Square_Icon" data-name="Square Icon"><path d="m68.13,37.29c5.58,6.65,6.94,18.21,4.07,34.69-7.81-1.17-15.66-.82-23.52,1.04l-3.03-1.04-3.11-11.16c-1.17-7.34.53-14.48,5.1-21.45,6.64,1.49,13.48.8,20.49-2.07Zm18.34,0c6.96,2.02,14.46,2.37,22.49,1.04l3.03,1.99c1.38,9.36,1.06,21.29-.96,35.8v13.24l-1.04,3.03c-.85,5.79-.51,12.63,1.04,20.49l-1.04,1.99v19.38l1.04,2.07v3.11l.96,1.99-.96,4.07v6.14c-2.23,2.23-5.32,3.59-9.25,4.07-5.79-1.33-11.91-.64-18.34,2.07l-2.07-1.04-3.03-1.99-3.11-13.32c2.07-7.12,2.76-15.63,2.07-25.52v-8.13l1.04-3.11c0-4.78.32-10.9.96-18.34.69-3.93,1.04-8.72,1.04-14.35l1.04-3.03c-.16-5.42-1.06-12.04-2.71-19.85l1.59-8.93,6.22-2.87Zm37.79,1.04l7.18,1.99h3.03c3.56-.64,7.31-.64,11.24,0,4.94,12.81,2.9,23.71-6.14,32.69-4.94-1.7-10.74-2.05-17.38-1.04l-1.99-5.1c-.37-4.41-.03-9.86,1.04-16.35-.69-1.86-1.04-4.57-1.04-8.13,1.33-.85,2.68-2.2,4.07-4.07Z" class="cls-1"/><path d="m190.52,190.52H0V0h190.52v190.52Zm-179.18-11.34h167.84s0-167.84,0-167.84H11.34v167.84Z" class="cls-1"/></g></g></svg>